<svg width="178" height="186" viewBox="0 0 178 186" fill="none" xmlns="http://www.w3.org/2000/svg">
<rect width="178" height="186" rx="21" fill="#1D1D21"/>
<path d="M35.6501 28.55C33.6477 28.55 31.7273 29.3455 30.3114 30.7614C28.8955 32.1773 28.1001 34.0977 28.1001 36.1C28.1001 38.1024 28.8955 40.0228 30.3114 41.4387C31.7273 42.8546 33.6477 43.65 35.6501 43.65H44.8611L47.1638 52.8762C47.1867 52.9824 47.2119 53.0881 47.2393 53.1932L57.4922 94.1898L50.7501 100.924C41.2371 110.437 47.9717 126.7 61.4258 126.7H126.25C128.252 126.7 130.173 125.905 131.589 124.489C133.005 123.073 133.8 121.152 133.8 119.15C133.8 117.148 133.005 115.227 131.589 113.811C130.173 112.395 128.252 111.6 126.25 111.6H61.4258L68.9758 104.05H118.7C120.102 104.049 121.476 103.658 122.668 102.921C123.86 102.184 124.823 101.129 125.45 99.8749L148.1 54.5749C148.675 53.4241 148.946 52.1455 148.888 50.8603C148.831 49.5752 148.445 48.3261 147.769 47.2317C147.093 46.1373 146.148 45.2338 145.025 44.607C143.901 43.9801 142.637 43.6507 141.35 43.65H60.4141L58.0736 34.2654C57.6646 32.6327 56.7218 31.1836 55.3949 30.148C54.068 29.1125 52.4332 28.5501 50.7501 28.55H35.6501ZM133.8 145.575C133.8 148.579 132.607 151.459 130.483 153.583C128.359 155.707 125.479 156.9 122.475 156.9C119.472 156.9 116.591 155.707 114.467 153.583C112.343 151.459 111.15 148.579 111.15 145.575C111.15 142.571 112.343 139.691 114.467 137.567C116.591 135.443 119.472 134.25 122.475 134.25C125.479 134.25 128.359 135.443 130.483 137.567C132.607 139.691 133.8 142.571 133.8 145.575ZM62.0751 156.9C65.0787 156.9 67.9592 155.707 70.0831 153.583C72.2069 151.459 73.4001 148.579 73.4001 145.575C73.4001 142.571 72.2069 139.691 70.0831 137.567C67.9592 135.443 65.0787 134.25 62.0751 134.25C59.0715 134.25 56.191 135.443 54.0671 137.567C51.9433 139.691 50.7501 142.571 50.7501 145.575C50.7501 148.579 51.9433 151.459 54.0671 153.583C56.191 155.707 59.0715 156.9 62.0751 156.9V156.9Z" fill="white"/>
</svg>
